<svg width="37" height="37" viewBox="0 0 37 37" fill="none" xmlns="http://www.w3.org/2000/svg">
<path d="M4.62498 33.9166H32.375C32.7838 33.9166 33.176 33.7542 33.4651 33.465C33.7542 33.1759 33.9166 32.7838 33.9166 32.3749V9.24992C33.9166 8.84104 33.7542 8.44891 33.4651 8.15979C33.176 7.87068 32.7838 7.70825 32.375 7.70825H26.2083V4.62492C26.2083 4.21604 26.0459 3.82391 25.7568 3.5348C25.4676 3.24568 25.0755 3.08325 24.6666 3.08325C24.2578 3.08325 23.8656 3.24568 23.5765 3.5348C23.2874 3.82391 23.125 4.21604 23.125 4.62492V7.70825H13.875V4.62492C13.875 4.21604 13.7126 3.82391 13.4234 3.5348C13.1343 3.24568 12.7422 3.08325 12.3333 3.08325C11.9244 3.08325 11.5323 3.24568 11.2432 3.5348C10.9541 3.82391 10.7916 4.21604 10.7916 4.62492V7.70825H4.62498C4.2161 7.70825 3.82398 7.87068 3.53486 8.15979C3.24574 8.44891 3.08331 8.84104 3.08331 9.24992V32.3749C3.08331 32.7838 3.24574 33.1759 3.53486 33.465C3.82398 33.7542 4.2161 33.9166 4.62498 33.9166ZM6.16665 10.7916H30.8333V15.4166H6.16665V10.7916ZM6.16665 18.4999H30.8333V30.8332H6.16665V18.4999Z" fill="white"/>
</svg>
