<svg width="36" height="36" viewBox="0 0 36 36" fill="none" xmlns="http://www.w3.org/2000/svg">
<g clip-path="url(#clip0_32_116)">
<path d="M18 0C8.0595 0 0 8.05838 0 18C0 27.9416 8.05838 36 18 36C27.9416 36 36 27.9416 36 18C36 8.05838 27.9416 0 18 0ZM18 33.786C9.315 33.786 2.25 26.685 2.25 18C2.25 9.315 9.315 2.25 18 2.25C26.685 2.25 33.75 9.315 33.75 18C33.75 26.685 26.685 33.786 18 33.786ZM19.125 17.5432V6.75C19.125 6.129 18.621 5.625 18 5.625C17.379 5.625 16.875 6.129 16.875 6.75V18C16.875 18.3184 17.0077 18.6041 17.2215 18.8089C17.2406 18.8314 17.2552 18.855 17.2755 18.8752L22.8431 24.444C23.2819 24.8828 23.994 24.8828 24.4339 24.444C24.8738 24.0053 24.8726 23.292 24.4339 22.8521L19.125 17.5432Z" fill="white"/>
</g>
<defs>
<clipPath id="clip0_32_116">
<rect width="36" height="36" fill="white"/>
</clipPath>
</defs>
</svg>
