<svg width="31" height="37" viewBox="0 0 31 37" fill="none" xmlns="http://www.w3.org/2000/svg">
<path fill-rule="evenodd" clip-rule="evenodd" d="M15.894 32.6534C15.6324 32.8453 15.3887 33.0195 15.1659 33.1757C14.9283 33.018 14.6647 32.8367 14.3788 32.6324C13.0311 31.6681 11.2833 30.2526 9.5619 28.4872C6.03112 24.8659 3.0625 20.2433 3.0625 15.3125C3.0625 8.54701 8.54701 3.0625 15.3125 3.0625C22.078 3.0625 27.5625 8.54701 27.5625 15.3125C27.5625 20.1905 24.463 24.7997 20.8032 28.4594C19.0275 30.2352 17.2406 31.666 15.894 32.6534ZM30.625 15.3125C30.625 27.5625 15.3125 36.75 15.3125 36.75C14.5469 36.75 0 27.5625 0 15.3125C0 6.85563 6.85563 0 15.3125 0C23.7693 0 30.625 6.85563 30.625 15.3125ZM18.375 15.3125C18.375 17.0038 17.0038 18.375 15.3125 18.375C13.6212 18.375 12.25 17.0038 12.25 15.3125C12.25 13.6211 13.6212 12.25 15.3125 12.25C17.0038 12.25 18.375 13.6211 18.375 15.3125ZM21.4375 15.3125C21.4375 18.6953 18.6953 21.4375 15.3125 21.4375C11.9297 21.4375 9.1875 18.6953 9.1875 15.3125C9.1875 11.9298 11.9297 9.1875 15.3125 9.1875C18.6953 9.1875 21.4375 11.9298 21.4375 15.3125Z" fill="white"/>
</svg>
