<svg width="1440" height="885" viewBox="0 0 1440 885" fill="none" xmlns="http://www.w3.org/2000/svg">
<path d="M107.79 325.891L429.381 169.239L443.364 174.835L506.284 137.071H546.477L681.761 9.79137L741.185 0L764.954 50.352L790.122 43.3594L901.981 152.455L936.946 135.671L1219.38 261.027H1252.93L1485.04 381.836V884.657H-87.9602V416.803L107.79 325.891Z" fill="#054D97"/>
<path d="M546.477 137.071H506.284L443.364 174.835L429.381 169.239L107.79 325.891L-87.9602 416.803V884.657H568.505L713.221 248.963L698.54 220.991L570.603 255.956L681.761 213.996L720.212 128.679L664.983 156.651L721.611 113.292L741.185 0L681.761 9.79137L546.477 137.071Z" fill="#033970"/>
<path d="M802.706 169.239L790.122 43.3594L764.954 50.352L780.336 195.815H795.716L780.336 212.599L790.122 317.499L820.884 292.323V145.463L806.901 139.867L802.706 169.239Z" fill="#033970"/>
<path d="M936.946 135.671L901.981 152.455L936.946 267.147H955.113L936.946 274.139L1004.05 426.595L1017.33 381.133L936.946 135.671Z" fill="#033970"/>
<path d="M1485.04 540.778H-87.9602V884.657H1485.04V540.778Z" fill="#054D97"/>
<path d="M681.761 684.86L153.233 701.082L577.943 721.013L411.205 740.944L1075.01 795.96L951.212 745.272L1297.33 712.717L954.414 656.061L1017.33 645.485L664.982 638.903H1485.04V884.657H-87.9602V638.903L681.761 684.86Z" fill="#033970"/>
<path d="M626.859 485.036L936.946 384.504L985.874 390.626L1268.23 302.284L1304.38 327.151L1485.04 262.411V540.428H448.957L626.859 485.036Z" fill="#0E65BE"/>
<path d="M820.884 543.535L966.999 513.485L1039.7 462.959L1135.32 453.167L1122.18 482.369L1136.73 471.529L1195.96 511.54L1183.02 531.171L1206.66 527.061L1247.34 490.182L1485.04 442.329V539.043L820.884 543.535Z" fill="#033970"/>
<path d="M882.057 426.594L901.981 432.108L872.619 434.273L808.65 488.265L886.251 453.167L959.658 426.594L985.875 390.626L936.946 384.504L882.057 426.594Z" fill="#033970"/>
<path d="M1268.23 302.284L1244.9 384.504L1273.57 412.641L1244.9 408.411L1213.07 513.485L1262.72 432.108L1299.43 426.594L1304.38 327.151L1268.23 302.284Z" fill="#033970"/>
<path d="M1017.33 540.428L844.885 557.619L894.466 562.614L606.284 581.668L705.53 598.979L-87.9602 634.731V523.062L1017.33 540.428Z" fill="#054D97"/>
<path d="M266.489 609.173L705.53 598.979L569.902 573.803L894.466 562.614L811.796 554.283L1017.33 540.428L718.771 483.301L698.54 479.105L650.301 494.079L312.63 338.827H274.878L77.7292 248.613L21.7472 282.181L4.32251 297.568L-87.9602 330.147V615.603L266.489 609.173Z" fill="#054D97"/>
<path d="M574.797 558.068L448.957 529.717L312.631 338.827H274.879L319.971 389.179H338.652L326.611 397.571L448.957 529.717L109.189 453.168L569.902 573.803L894.466 562.614L574.797 558.068Z" fill="#033D78"/>
<path d="M811.796 561.439L721.611 506.002H698.54L722.659 494.079L698.54 479.105L650.301 494.079L754.128 560.619L811.796 561.439Z" fill="#054D97"/>
<path d="M19.9854 519.487L30.5392 504.919L-87.9602 397.921V579.398L397.596 606.129L35.7825 509.115L19.9854 519.487Z" fill="#033970"/>
<path d="M141.698 390.578L224.543 453.168L158.477 360.157L123.871 365.402L158.477 352.814L77.7292 248.613L21.7472 282.181L4.32252 297.568L89.2645 386.382L141.698 390.578Z" fill="#033D78"/>
</svg>
