<svg width="133" height="133" viewBox="0 0 133 133" fill="none" xmlns="http://www.w3.org/2000/svg">
<path fill-rule="evenodd" clip-rule="evenodd" d="M68.0783 105.256C67.3684 105.777 66.7067 106.249 66.1021 106.673C65.4571 106.245 64.7416 105.753 63.9658 105.199C60.3077 102.581 55.5635 98.7392 50.8912 93.9473C41.3077 84.1181 33.25 71.5712 33.25 58.1875C33.25 39.824 48.1365 24.9375 66.5 24.9375C84.8634 24.9375 99.75 39.824 99.75 58.1875C99.75 71.4276 91.3372 83.9385 81.4032 93.872C76.5836 98.6921 71.7335 102.576 68.0783 105.256ZM108.062 58.1875C108.062 91.4375 66.5 116.375 66.5 116.375C64.4219 116.375 24.9375 91.4375 24.9375 58.1875C24.9375 35.2331 43.5456 16.625 66.5 16.625C89.4541 16.625 108.062 35.2331 108.062 58.1875ZM74.8125 58.1875C74.8125 62.7782 71.0907 66.5 66.5 66.5C61.9093 66.5 58.1875 62.7782 58.1875 58.1875C58.1875 53.5966 61.9093 49.875 66.5 49.875C71.0907 49.875 74.8125 53.5966 74.8125 58.1875ZM83.125 58.1875C83.125 67.3695 75.682 74.8125 66.5 74.8125C57.318 74.8125 49.875 67.3695 49.875 58.1875C49.875 49.0058 57.318 41.5625 66.5 41.5625C75.682 41.5625 83.125 49.0058 83.125 58.1875Z" fill="white"/>
</svg>
