<svg width="140" height="140" viewBox="0 0 140 140" fill="none" xmlns="http://www.w3.org/2000/svg">
<g clip-path="url(#clip0_38_9590)">
<circle cx="69.5" cy="61.5" r="61.5" fill="#054D97"/>
<path d="M70.0011 0.000976562C31.3509 0.000976562 0 31.3518 0 69.9999C0 108.663 31.3509 139.999 70.0011 139.999C108.653 139.999 140 108.661 140 69.9999C140 31.3518 108.651 0.000976562 70.0011 0.000976562ZM32.8107 103.369C30.7023 103.369 28.9898 101.67 28.9898 99.5612C28.9898 98.1656 29.7754 97.0032 30.9078 96.3397V61.4504H34.7158V96.3397C35.8375 97.0032 36.6231 98.1613 36.6231 99.5677C36.621 101.67 34.9106 103.369 32.8107 103.369ZM102.686 89.6397C102.686 94.1499 88.0461 101.075 69.9989 101.075C51.9539 101.075 37.3124 94.152 37.3124 89.6397V67.1101L69.9989 78.7805L102.686 67.1101V89.6397ZM70.0011 74.737L36.5803 62.8011L66.9422 58.1261C67.6721 59.0423 68.7317 59.6566 69.9861 59.6566C72.1802 59.6566 73.959 57.8821 73.959 55.6752C73.959 53.4704 72.1909 51.7001 69.9861 51.7001C68.2544 51.7001 66.8266 52.8304 66.2808 54.3673L29.0433 60.0976L16.6472 55.6709L69.9925 36.6176L123.336 55.6709L70.0011 74.737Z" fill="white"/>
</g>
<defs>
<clipPath id="clip0_38_9590">
<rect width="140" height="140" fill="white"/>
</clipPath>
</defs>
</svg>
