<svg width="77" height="77" viewBox="0 0 77 77" fill="none" xmlns="http://www.w3.org/2000/svg">
<path fill-rule="evenodd" clip-rule="evenodd" d="M40.307 66.9802C39.8007 67.3539 39.3288 67.6929 38.8976 67.997C38.4376 67.6901 37.9273 67.3372 37.374 66.9393C34.7652 65.0619 31.3817 62.3061 28.0495 58.869C21.2147 51.8186 15.4681 42.819 15.4681 33.2192C15.4681 20.0474 26.0849 9.36962 39.1814 9.36962C52.2778 9.36962 62.8947 20.0474 62.8947 33.2192C62.8947 42.7161 56.8948 51.6899 49.8101 58.8149C46.3728 62.2723 42.9139 65.0579 40.307 66.9802ZM68.823 33.2192C68.823 57.0687 39.1814 74.9559 39.1814 74.9559C37.6993 74.9559 9.53979 57.0687 9.53979 33.2192C9.53979 16.7545 22.8108 3.40723 39.1814 3.40723C55.5518 3.40723 68.823 16.7545 68.823 33.2192ZM45.1097 33.2192C45.1097 36.512 42.4554 39.1816 39.1814 39.1816C35.9074 39.1816 33.2531 36.512 33.2531 33.2192C33.2531 29.9262 35.9074 27.2568 39.1814 27.2568C42.4554 27.2568 45.1097 29.9262 45.1097 33.2192ZM51.038 33.2192C51.038 39.8052 45.7298 45.144 39.1814 45.144C32.633 45.144 27.3248 39.8052 27.3248 33.2192C27.3248 26.6333 32.633 21.2944 39.1814 21.2944C45.7298 21.2944 51.038 26.6333 51.038 33.2192Z" fill="white"/>
</svg>
