<svg width="139" height="139" viewBox="0 0 139 139" fill="none" xmlns="http://www.w3.org/2000/svg">
<path d="M97.4607 102.213L100.992 107.643C125.426 91.2189 139 71.2637 139 54.84C139 38.9592 127.324 31.4923 117.416 31.4923C104.928 31.4923 96.1055 42.0824 96.1055 53.211C96.1055 62.5762 102.078 70.586 110.088 73.5745C112.395 74.3912 114.566 75.0688 114.566 79.0042C114.566 84.0256 110.9 91.4882 97.4607 102.213ZM43.5722 102.213L47.1036 107.643C71.2679 91.2189 85.1114 71.2637 85.1114 54.84C85.1114 38.9592 73.1661 31.4923 63.258 31.4923C50.6351 31.4923 41.6739 42.0824 41.6739 53.211C41.6739 62.5762 47.7812 70.586 56.0648 73.5745C58.3713 74.3912 60.4085 75.0688 60.4085 79.0042C60.4085 84.0256 56.6077 91.4925 43.5765 102.217L43.5722 102.213Z" fill="#8A1204" fill-opacity="0.4"/>
</svg>
