<svg width="139" height="139" viewBox="0 0 139 139" fill="none" xmlns="http://www.w3.org/2000/svg">
<path d="M41.5393 36.7871L38.0078 31.3574C13.5742 47.7811 0 67.7363 0 84.16C0 100.041 11.676 107.508 21.5841 107.508C34.0724 107.508 42.8945 96.9176 42.8945 85.789C42.8945 76.4238 36.9219 68.414 28.912 65.4255C26.6055 64.6088 24.4336 63.9312 24.4336 59.9958C24.4336 54.9744 28.0997 47.5118 41.5393 36.7871ZM95.4278 36.7871L91.8964 31.3574C67.7321 47.7811 53.8886 67.7363 53.8886 84.16C53.8886 100.041 65.8339 107.508 75.742 107.508C88.3649 107.508 97.3261 96.9176 97.3261 85.789C97.3261 76.4238 91.2188 68.414 82.9352 65.4255C80.6287 64.6088 78.5915 63.9312 78.5915 59.9958C78.5915 54.9744 82.3923 47.5075 95.4235 36.7828L95.4278 36.7871Z" fill="#8A1204" fill-opacity="0.36"/>
</svg>
