<svg width="23" height="23" viewBox="0 0 23 23" fill="none" xmlns="http://www.w3.org/2000/svg">
<path d="M7.65615 3.35357C7.53077 3.48194 7.46057 3.65426 7.46057 3.8337C7.46057 4.01314 7.53077 4.18546 7.65615 4.31382L14.6611 11.4999L7.65615 18.6845C7.53077 18.8129 7.46057 18.9852 7.46057 19.1646C7.46057 19.3441 7.53077 19.5164 7.65615 19.6448C7.71709 19.7074 7.78996 19.7571 7.87045 19.7911C7.95093 19.825 8.03741 19.8425 8.12477 19.8425C8.21213 19.8425 8.29861 19.825 8.3791 19.7911C8.45959 19.7571 8.53245 19.7074 8.5934 19.6448L16.0425 12.0016C16.1734 11.8673 16.2466 11.6873 16.2466 11.4999C16.2466 11.3124 16.1734 11.1324 16.0425 10.9982L8.5934 3.35501C8.53245 3.29242 8.45959 3.24267 8.3791 3.2087C8.29861 3.17473 8.21213 3.15723 8.12477 3.15723C8.03741 3.15723 7.95093 3.17473 7.87045 3.2087C7.78996 3.24267 7.71709 3.29242 7.65615 3.35501V3.35357Z" fill="#8A1204"/>
</svg>
