<svg width="9" height="17" viewBox="0 0 9 17" fill="none" xmlns="http://www.w3.org/2000/svg">
<path d="M0.195576 0.196348C0.0701941 0.324714 0 0.497034 0 0.676473C0 0.855912 0.0701941 1.02823 0.195576 1.1566L7.20051 8.34266L0.195576 15.5273C0.0701941 15.6557 0 15.828 0 16.0074C0 16.1868 0.0701941 16.3592 0.195576 16.4875C0.256521 16.5501 0.329387 16.5999 0.409874 16.6338C0.490362 16.6678 0.576839 16.6853 0.664201 16.6853C0.751563 16.6853 0.838041 16.6678 0.918528 16.6338C0.999016 16.5999 1.07188 16.5501 1.13283 16.4875L8.58195 8.84435C8.71278 8.71012 8.78601 8.5301 8.78601 8.34266C8.78601 8.15522 8.71278 7.9752 8.58195 7.84097L1.13283 0.197786C1.07188 0.135192 0.999016 0.0854419 0.918528 0.0514717C0.838041 0.0175016 0.751563 0 0.664201 0C0.576839 0 0.490362 0.0175016 0.409874 0.0514717C0.329387 0.0854419 0.256521 0.135192 0.195576 0.197786V0.196348Z" fill="white"/>
</svg>
